HIERARCHY
ROOT Hips
{
	OFFSET 0.00000 0.00000 0.00000
	CHANNELS 6 Xposition Yposition Zposition Yrotation Zrotation Xrotation 
	JOINT Lumbar
	{
		OFFSET 0 0 0
		CHANNELS 3 Zrotation Xrotation Yrotation
		JOINT Neck
		{
			OFFSET 0.00 0.2701 0.00
			CHANNELS 3 Zrotation Xrotation Yrotation
			End Site
			{
				OFFSET 0.00 0.1379 0.00
			}
		}
		JOINT RightShoulder
		{
			OFFSET 0.0119 0.2289 0.1181
			CHANNELS 3 Zrotation Xrotation Yrotation
			JOINT RightElbow
			{
				OFFSET 0.00 -0.1475 0.00
				CHANNELS 2 Zrotation Yrotation
				JOINT RightWrist
				{
					OFFSET 0.00 -0.1605 0.00
					CHANNELS 2 Zrotation Xrotation
					End Site
					{
						OFFSET 0.0040 -0.1068 0.0006
					}
				}
			}
		}
		JOINT LeftShoulder
		{
			OFFSET 0.0119 0.2289 -0.1181
			CHANNELS 3 Zrotation Xrotation Yrotation
			JOINT LeftElbow
			{
				OFFSET 0.00 -0.1475 0.00
				CHANNELS 2 Zrotation Yrotation
				JOINT LeftWrist
				{
					OFFSET 0.00 -0.1605 0.00
					CHANNELS 2 Zrotation Xrotation
					End Site
					{
						OFFSET 0.0040 -0.1068 -0.0006
					}
				}
			}
		}
	}
	JOINT RightHip
	{
		OFFSET 0.0316 -0.0424 0.0458
		CHANNELS 3 Zrotation Xrotation Yrotation
		JOINT RightKnee
		{
			OFFSET 0.00 -0.2438 0.00
			CHANNELS 1 Zrotation
			JOINT RightAnkle
			{
				OFFSET 0.00 -0.2449 0.00
				CHANNELS 3 Zrotation Xrotation Yrotation
				End Site
				{
					OFFSET 0.1237 -0.0542 0.0051
				}
			}
		}
	}
	JOINT LeftHip
	{
		OFFSET 0.0316 -0.0424 -0.0458
		CHANNELS 3 Zrotation Xrotation Yrotation
		JOINT LeftKnee
		{
			OFFSET 0.00 -0.2438 0.00
			CHANNELS 1 Zrotation
			JOINT LeftAnkle
			{
				OFFSET 0.00 -0.2449 0.00
				CHANNELS 3 Zrotation Xrotation Yrotation
				End Site
				{
					OFFSET 0.1237 -0.0542 -0.0051
				}
			}
		}
	}
}
MOTION
Frames: 34
Frame Time: 0.02
-0 0.57926 -0 175.75805 0 2.42352 9.77619 -1.2125 -5.7282 -45.42138 4.97174 8.97797 35.28091 -20.20099 7.03817 14.0237 82.2445 0.24128 1.64159 36.95965 -2.10552 0.87172 7.26465 -72.51337 -4.89813 -0.49761 -1.88113 3.37207 19.71974 -20.78431 13.01655 -10.43401 -11.9743 -4.45328 -3.22741 -7.56965 -14.78479 11.15729 8.73708 11.34194
-8e-05 0.57928 0.00019 175.82951 0 2.4265 9.7096 -1.20119 -5.79234 -45.19698 5.02152 8.97687 35.06245 -20.25668 7.10696 14.04489 82.2583 0.24235 1.61642 36.84353 -2.08178 0.36063 7.29698 -72.55518 -4.91121 -0.38247 -1.93161 3.33966 19.64184 -20.70093 13.00393 -10.45488 -11.97034 -4.46142 -3.23545 -7.59974 -14.75956 11.14882 8.71009 11.30588
-0.00016 0.5793 0.00038 175.90049 0 2.42944 9.64272 -1.18974 -5.85605 -44.972 5.07067 8.97539 34.84362 -20.3114 7.1754 14.06574 82.27219 0.24337 1.59146 36.72649 -2.05756 -0.14882 7.32919 -72.59877 -4.92419 -0.26829 -1.98154 3.30742 19.56437 -20.61826 12.99136 -10.47551 -11.96638 -4.46938 -3.24352 -7.62986 -14.73452 11.14033 8.68323 11.27021
-0.00024 0.57932 0.00058 175.97017 0 2.43196 9.57457 -1.1776 -5.91889 -44.7463 5.11848 8.9734 34.62491 -20.36429 7.24345 14.0856 82.28657 0.24411 1.56777 36.60838 -2.03265 -0.6568 7.36103 -72.64935 -4.93671 -0.15682 -2.02973 3.27583 19.48782 -20.53778 12.9789 -10.49539 -11.96237 -4.47653 -3.25161 -7.66036 -14.71049 11.13198 8.6569 11.236
-0.00034 0.57933 0.00077 176.04661 0 2.43637 9.51383 -1.16908 -5.98659 -44.52904 5.17425 8.97533 34.41007 -20.42867 7.31396 14.11088 82.29836 0.24623 1.53816 36.50052 -2.01318 -1.17268 7.39457 -72.66227 -4.95144 -0.03096 -2.08707 3.24111 19.40635 -20.44592 12.96588 -10.51924 -11.9586 -4.48779 -3.25936 -7.6888 -14.68168 11.12325 8.62811 11.19435
-0.00038 0.57935 0.00096 176.10878 0 2.43699 9.43698 -1.15293 -6.04378 -44.29098 5.21254 8.96814 34.18422 -20.46745 7.37893 14.12454 82.31563 0.24547 1.52054 36.36798 -1.98101 -1.67126 7.42467 -72.75523 -4.96164 0.06432 -2.12506 3.21282 19.33539 -20.37806 12.95406 -10.53465 -11.95438 -4.49047 -3.26798 -7.7216 -14.66261 11.11508 8.60432 11.16825
-0.00025 0.57938 0.00118 176.13108 0 2.42502 9.31596 -1.11429 -6.07366 -44.01242 5.20678 8.94168 33.94526 -20.44435 7.43187 14.10627 82.34881 0.23611 1.54175 36.18654 -1.92146 -2.13529 7.44402 -73.07647 -4.9577 0.07474 -2.10824 3.20424 19.29224 -20.37846 12.94538 -10.52639 -11.94829 -4.46765 -3.27805 -7.76758 -14.67436 11.11033 8.59594 11.18802
-5e-05 0.5794 0.00141 176.13919 0 2.40962 9.17847 -1.06813 -6.09252 -43.70892 5.18258 8.90484 33.69122 -20.39367 7.4785 14.07619 82.38737 0.22397 1.57412 35.97601 -1.84752 -2.58007 7.46014 -73.47741 -4.94948 0.05439 -2.0721 3.2018 19.25978 -20.40281 12.93796 -10.50965 -11.94189 -4.43646 -3.28918 -7.8179 -14.69522 11.10578 8.59228 11.22299
0.00012 0.57943 0.00163 176.15395 0 2.39716 9.04815 -1.02631 -6.1155 -43.40605 5.16402 8.86897 33.4332 -20.34992 7.52617 14.05142 82.42304 0.21354 1.5976 35.76661 -1.77522 -3.02548 7.47854 -73.83772 -4.94426 0.04839 -2.04573 3.19526 19.22324 -20.41484 12.93007 -10.49701 -11.93596 -4.41028 -3.30045 -7.8654 -14.70939 11.09994 8.58543 11.24912
0.00029 0.57945 0.00186 176.16741 0 2.37884 8.91922 -0.98069 -6.14273 -43.15042 5.15698 8.84924 33.22313 -20.33013 7.58223 14.02701 82.46071 0.20124 1.63687 35.61008 -1.72398 -3.50454 7.49351 -74.21707 -4.93457 0.04079 -2.01534 3.19416 19.18374 -20.43265 12.9217 -10.48336 -11.92849 -4.3791 -3.3091 -7.91606 -14.73438 11.09924 8.5831 11.28334
0.00047 0.57948 0.00207 176.18078 0 2.37197 8.78343 -0.94108 -6.15786 -42.78794 5.12163 8.79304 32.90688 -20.25351 7.61844 13.9989 82.49533 0.19215 1.64632 35.33425 -1.62501 -3.9096 7.51485 -74.57511 -4.93318 0.02924 -1.98853 3.18328 19.15255 -20.44448 12.91466 -10.46974 -11.92434 -4.35625 -3.32345 -7.96172 -14.73892 11.08775 8.57234 11.3044
0.00067 0.57953 0.00224 176.19265 0 2.39709 8.63354 -0.92096 -6.1474 -42.15938 5.01223 8.64218 32.32544 -20.03039 7.60942 13.96475 82.52199 0.19293 1.56725 34.7565 -1.40146 -4.11106 7.55505 -74.86026 -4.95558 0.01468 -1.97815 3.14326 19.14466 -20.43055 12.91078 -10.45887 -11.92788 -4.35915 -3.3532 -7.98777 -14.68561 11.04759 8.53832 11.28458
0.00087 0.57958 0.00238 176.20599 0 2.43395 8.47738 -0.90697 -6.12413 -41.42085 4.8751 8.45449 31.63411 -19.75069 7.57937 13.92709 82.54524 0.19714 1.45858 34.05672 -1.12964 -4.24031 7.60204 -75.12049 -4.98653 -0.00252 -1.97177 3.0933 19.14398 -20.41032 12.90826 -10.44828 -11.93504 -4.37055 -3.38862 -8.0096 -14.6113 10.99637 8.49546 11.25106
0.00107 0.57962 0.00253 176.22155 0 2.46574 8.32325 -0.88947 -6.10337 -40.71645 4.7508 8.28116 30.97589 -19.49403 7.55338 13.89018 82.56868 0.19931 1.36553 33.39834 -0.87754 -4.40414 7.64515 -75.38813 -5.01362 -0.01919 -1.96227 3.04832 19.13833 -20.39535 12.90526 -10.43709 -11.94163 -4.37761 -3.4215 -8.0364 -14.54601 10.94943 8.45587 11.22448
0.00127 0.57967 0.00269 176.22371 0 2.49624 8.17106 -0.87469 -6.09632 -40.0741 4.6246 8.1168 30.38417 -19.24626 7.5494 13.85629 82.59736 0.20266 1.26312 32.79481 -0.63445 -4.55638 7.69 -75.67381 -5.04028 -0.03554 -1.95729 3.00163 19.14116 -20.37149 12.90165 -10.42731 -11.94383 -4.38651 -3.45437 -8.0502 -14.48307 10.90554 8.41952 11.1958
0.00148 0.57972 0.00283 176.25522 0 2.53231 8.01474 -0.85587 -6.05765 -39.2817 4.49639 7.92602 29.63308 -18.96872 7.49588 13.81557 82.61514 0.20537 1.1738 32.05282 -0.36112 -4.72022 7.73475 -75.91655 -5.07011 -0.05098 -1.94449 2.95603 19.1267 -20.36387 12.89969 -10.41514 -11.95583 -4.39356 -3.48846 -8.09032 -14.41034 10.85281 8.37438 11.16756
0.00177 0.57979 0.00294 176.35944 0 2.58062 7.8387 -0.82386 -5.93591 -38.05971 4.3663 7.66427 28.42638 -18.60766 7.29894 13.75668 82.59559 0.19688 1.12042 30.92031 -0.01698 -4.89811 7.76428 -76.03444 -5.10727 -0.07742 -1.90588 2.91617 19.07336 -20.40665 12.90147 -10.39308 -11.99598 -4.39466 -3.52573 -8.20135 -14.31394 10.77729 8.30595 11.14805
0.00207 0.57987 0.00302 176.49448 0 2.63418 7.66077 -0.78774 -5.78232 -36.69887 4.23582 7.3789 27.0716 -18.22184 7.05412 13.69175 82.56638 0.18901 1.08212 29.65973 0.35667 -5.09793 7.79788 -76.11301 -5.14869 -0.0992 -1.85993 2.87773 19.00067 -20.46521 12.90493 -10.3692 -12.04559 -4.39348 -3.56375 -8.3394 -14.2087 10.69351 8.22917 11.12872
0.00236 0.57994 0.0031 176.62106 0 2.68554 7.49012 -0.75385 -5.64304 -35.42886 4.10763 7.10858 25.81191 -17.85709 6.84025 13.62896 82.5472 0.18682 1.04225 28.48313 0.71644 -5.30995 7.83586 -76.21584 -5.18589 -0.11481 -1.81958 2.83829 18.92938 -20.5137 12.90797 -10.34838 -12.08952 -4.39252 -3.60067 -8.46701 -14.10858 10.61419 8.15696 11.10639
0.00268 0.58002 0.0032 176.72526 0 2.7366 7.29168 -0.71853 -5.50531 -34.03636 3.9695 6.81739 24.42897 -17.44778 6.59089 13.56601 82.50523 0.16055 0.98079 27.19421 1.07711 -5.42181 7.83984 -76.28621 -5.22703 -0.1691 -1.76992 2.79969 18.88817 -20.57391 12.90972 -10.31835 -12.13913 -4.39506 -3.64118 -8.58715 -14.003 10.53136 8.08118 11.09551
0.00294 0.58008 0.00327 176.88212 0 2.78928 7.15133 -0.68527 -5.35532 -32.86943 3.85242 6.56625 23.27159 -17.12757 6.39927 13.50524 82.50707 0.1833 0.9661 26.10941 1.44574 -5.75353 7.92549 -76.42104 -5.26838 -0.13717 -1.73774 2.76023 18.78136 -20.61391 12.91444 -10.30681 -12.17943 -4.38994 -3.67408 -8.72878 -13.9071 10.45418 8.01099 11.06151
0.00306 0.58012 0.00325 177.18776 0 2.84596 7.16686 -0.65735 -5.19277 -32.34237 3.79307 6.41665 22.75189 -17.04747 6.4234 13.42595 82.64471 0.35086 1.09423 25.6248 1.80205 -6.64193 8.15803 -76.69567 -5.24757 0.09063 -1.75652 2.71439 18.48309 -20.5909 12.92775 -10.34892 -12.18885 -4.36162 -3.68772 -8.92784 -13.83949 10.39349 7.95803 10.95929
0.00312 0.58015 0.0032 177.5433 0 2.90383 7.24175 -0.63182 -5.01626 -32.05024 3.75511 6.3108 22.46879 -17.06026 6.49973 13.35507 82.82468 0.5652 1.26481 25.3467 2.172 -7.75823 8.49232 -77.04716 -5.24015 0.41095 -1.79291 2.66843 18.12218 -20.5476 12.94377 -10.40923 -12.18904 -4.32593 -3.69327 -9.1468 -13.7824 10.33903 7.91111 10.8348
0.0032 0.58018 0.00315 177.86887 0 2.96063 7.29294 -0.60613 -4.83766 -31.66305 3.7079 6.19526 22.09203 -17.03891 6.52214 13.29598 82.97679 0.75276 1.40605 24.97505 2.55085 -8.80186 8.82431 -77.39287 -5.26469 0.71809 -1.82072 2.6249 17.79988 -20.51587 12.95813 -10.45992 -12.19541 -4.2955 -3.70129 -9.35351 -13.72069 10.28251 7.86156 10.72328
0.00331 0.58021 0.00316 178.2263 0 3.02009 7.33075 -0.57659 -4.69457 -31.22408 3.6589 6.03719 21.65175 -16.9833 6.6676 13.16612 83.16398 0.96663 1.59443 24.60983 2.8594 -9.7214 8.9495 -77.60754 -5.12121 0.91078 -1.85093 2.57116 17.43441 -20.47497 12.97466 -10.51657 -12.194 -4.25768 -3.71455 -9.57446 -13.65695 10.22246 7.81104 10.59926
0.00335 0.58024 0.00302 178.5288 0 3.07395 7.40987 -0.55543 -4.47331 -30.94739 3.61845 5.97671 21.40159 -17.02052 6.57326 13.19159 83.28952 1.13307 1.68923 24.26659 3.32675 -10.94617 9.55638 -78.12218 -5.34026 1.35467 -1.88014 2.53893 17.14385 -20.44792 12.98693 -10.56476 -12.20614 -4.23259 -3.7148 -9.77045 -13.60136 10.17134 7.76434 10.49656
0.00317 0.58023 0.00248 178.6676 0 3.11419 7.59448 -0.5592 -4.05182 -31.09003 3.59855 6.19013 21.62053 -17.29932 5.77342 13.60201 83.22469 1.18914 1.56263 24.06714 4.14754 -13.0188 11.23623 -79.36917 -6.47067 2.54832 -1.90484 2.56355 17.07859 -20.46591 12.98986 -10.58859 -12.26077 -4.25252 -3.68254 -9.88963 -13.55446 10.14338 7.72437 10.45299
0.00292 0.5802 0.00178 178.74934 0 3.14836 7.81754 -0.57091 -3.55071 -31.38358 3.586 6.49777 22.02166 -17.66685 4.73572 14.18174 83.09867 1.18995 1.33307 23.8594 5.14255 -15.37913 13.43833 -80.92507 -7.97736 3.97736 -1.92748 2.61027 17.09019 -20.49809 12.98784 -10.60266 -12.32876 -4.284 -3.6372 -9.98339 -13.51742 10.1242 7.68841 10.43244
0.00271 0.58019 0.00114 178.85672 0 3.18382 8.01909 -0.57748 -3.07731 -31.58949 3.56885 6.75218 22.3406 -17.98888 3.82811 14.70463 83.00657 1.19492 1.1175 23.56723 6.11153 -17.56794 15.55658 -82.39656 -9.37378 5.24633 -1.94944 2.64863 17.06487 -20.52251 12.98598 -10.61894 -12.38879 -4.30493 -3.59688 -10.09067 -13.48344 10.10103 7.6523 10.40497
0.00244 0.58016 0.00053 178.96648 0 3.22533 8.23967 -0.5906 -2.63631 -31.88254 3.55829 7.0511 22.67082 -18.33659 2.83229 15.12078 82.88834 1.28964 1.03536 23.65042 6.85758 -19.93746 17.03999 -83.65456 -10.53156 6.7406 -1.97888 2.68006 17.04653 -20.55185 12.99292 -10.64523 -12.45657 -4.34805 -3.56016 -10.19052 -13.41848 10.07814 7.60973 10.36251
0.00231 0.58016 -0.00018 179.05786 0 3.25302 8.42905 -0.59193 -2.11273 -32.02869 3.53481 7.28031 23.01064 -18.64992 1.95946 15.82715 82.81174 1.1841 0.65851 22.95231 8.10797 -21.9952 19.95632 -85.40432 -12.25387 7.8229 -1.99194 2.73094 17.03178 -20.57447 12.98044 -10.64816 -12.51139 -4.34772 -3.51295 -10.29934 -13.4196 10.05656 7.58097 10.35612
0.00257 0.58026 -0.00111 179.10557 0 3.24205 8.52153 -0.55856 -1.34921 -31.71443 3.47912 7.28303 23.39233 -18.85127 1.51577 17.05505 82.84677 0.53541 -0.57913 20.05431 10.71738 -23.12851 26.80072 -88.65789 -15.6336 7.68728 -1.96097 2.83219 17.01649 -20.57612 12.91463 -10.58838 -12.52798 -4.22481 -3.43995 -10.4411 -13.60679 10.03743 7.59407 10.45179
0.00299 0.58038 -0.00214 179.1379 0 3.21771 8.58098 -0.51291 -0.5111 -31.24844 3.40891 7.21377 23.7651 -19.01269 1.19842 18.61298 82.93011 -0.31234 -2.09747 16.37868 13.82534 -23.93713 35.04645 -92.35744 -19.53568 7.13285 -1.91331 2.9519 17.0009 -20.57047 12.82961 -10.50546 -12.53096 -4.05763 -3.3569 -10.59252 -13.85912 10.01913 7.62015 10.58167
0.00335 0.58049 -0.00312 179.1814 0 3.20079 8.65641 -0.47324 0.27201 -30.86355 3.34199 7.18491 24.10141 -19.19004 0.8019 20.17704 83.00168 -1.0669 -3.43904 13.08578 16.70068 -24.88685 42.58985 -95.70279 -23.06994 6.78442 -1.87282 3.06178 16.98031 -20.56753 12.75396 -10.43342 -12.5396 -3.91077 -3.27846 -10.73786 -14.07742 9.99971 7.63703 10.69062
